<svg width="40" height="40" fill="none"><path d="M39.219 35.313h-.86v-9.376h.86a.781.781 0 100-1.562h-4.766V.78A.781.781 0 0033.672 0H6.328a.781.781 0 00-.781.781v23.594H.781a.781.781 0 100 1.562h.86v9.375H.78a.781.781 0 00-.781.782v3.125c0 .431.35.781.781.781H39.22c.431 0 .781-.35.781-.781v-3.125a.781.781 0 00-.781-.782zm-2.422 0h-2.344v-9.376h2.344v9.375zM7.11 25.937h2.343v9.375H7.11v-9.375zm3.906 0h2.343v9.375h-2.343v-9.375zm3.906 0h2.344v9.375h-2.344v-9.375zm3.916-6.189l-2.533-1.88.98-1.32.327.225c.176.122.395.165.604.122a.781.781 0 00.504-.354c.198-.32.468-.585.784-.777a3.767 3.767 0 005.551-.002c.69.42 1.13 1.173 1.13 2.002v3.906a3.908 3.908 0 01-1.098 2.705h-5.933v-4a.781.781 0 00-.316-.627zm-3.123-4.284l.283.195-.948 1.278-.873-.648a.78.78 0 01-.362-.654v-6.14a.782.782 0 011.562 0v5.326c0 .257.127.497.338.643zm8.778-2.258c0 1.22-.993 2.214-2.214 2.214a2.216 2.216 0 01-2.214-2.214v-1.498c0-1.22.993-2.214 2.214-2.214 1.22 0 2.214.994 2.214 2.214v1.498zm-5.665 12.731h2.344v9.375h-2.344v-9.375zm3.906 0h2.344v9.375h-2.344v-9.375zm3.907 0h2.343v9.375h-2.343v-9.375zm3.906 0h2.344v9.375h-2.344v-9.375zM7.109 1.562h25.782v22.813h-1.563V3.906a.781.781 0 00-.781-.78h-7.032a.781.781 0 000 1.562h6.25v19.687h-2.74c.468-.818.723-1.75.723-2.705v-3.906a3.91 3.91 0 00-1.894-3.345c.13-.381.201-.789.201-1.213v-1.498a3.78 3.78 0 00-3.776-3.776 3.78 3.78 0 00-3.777 3.776v1.498c0 .425.072.834.202 1.215-.297.18-.57.397-.81.648l-.954-.658V9.494a2.346 2.346 0 00-2.344-2.343 2.346 2.346 0 00-2.344 2.343v6.142c.001.761.376 1.476 1.003 1.915l4.336 3.218v3.606h-7.356V4.688h6.25a.781.781 0 000-1.563H9.452a.781.781 0 00-.78.781v20.469H7.108V1.562zM3.204 25.937h2.344v9.375H3.203v-9.375zm35.234 12.5H1.563v-1.562h36.876v1.563z" fill="#FAFAFA"/><path d="M20 4.688a.781.781 0 000-1.563.781.781 0 100 1.563z" fill="#FAFAFA"/></svg>