<svg width="21" height="21" viewBox="0 0 21 21" fill="none" xmlns="http://www.w3.org/2000/svg">
<path fill-rule="evenodd" clip-rule="evenodd" d="M14.3982 6.52319C14.5819 6.34111 14.8299 6.23863 15.0885 6.23792C15.3472 6.23721 15.5957 6.33831 15.7804 6.51937C15.9651 6.70044 16.0711 6.94692 16.0755 7.20551C16.0799 7.46411 15.9823 7.71406 15.8039 7.90131L10.5644 14.4507C10.4744 14.5477 10.3657 14.6255 10.2449 14.6795C10.1241 14.7336 9.99358 14.7627 9.86126 14.7651C9.72893 14.7676 9.59747 14.7433 9.47473 14.6938C9.352 14.6443 9.24051 14.5705 9.14693 14.4769L5.67537 11.0041C5.57865 10.9139 5.50108 10.8053 5.44728 10.6845C5.39348 10.5638 5.36455 10.4334 5.36221 10.3012C5.35988 10.1691 5.3842 10.0378 5.4337 9.91522C5.48321 9.79264 5.5569 9.6813 5.65038 9.58783C5.74385 9.49435 5.8552 9.42066 5.97777 9.37115C6.10034 9.32164 6.23163 9.29733 6.3638 9.29966C6.49597 9.30199 6.62632 9.33092 6.74707 9.38473C6.86782 9.43853 6.9765 9.5161 7.06661 9.61281L9.81499 12.3599L14.3733 6.55206C14.3814 6.5419 14.3902 6.53225 14.3996 6.52319H14.3982Z" fill="#FAFAFA"/>
</svg>
