<svg width="40" height="40" fill="none" xmlns="http://www.w3.org/2000/svg"><path d="M36.809 2.553H21.277a.638.638 0 00-.639.638V31.702a.638.638 0 101.277 0v-7.2a4.94 4.94 0 002.281-1.992 4.87 4.87 0 004.208 2.384 4.87 4.87 0 004.202-2.374 4.861 4.861 0 003.564 2.333V36.17H21.915v-1.915a.638.638 0 10-1.277 0v2.553c0 .353.286.639.639.639h15.532a.638.638 0 00.638-.639V3.191a.638.638 0 00-.639-.638zm-.639 21.008a3.594 3.594 0 01-2.933-2.99.638.638 0 00-1.261 0 3.598 3.598 0 01-3.572 3.046 3.597 3.597 0 01-3.571-3.046.638.638 0 00-1.261 0 3.638 3.638 0 01-1.657 2.493V3.83H36.17V23.56z" fill="#FAFAFA"/><path d="M39.362 0H.638A.638.638 0 000 .638v38.724c0 .352.286.638.638.638h38.724a.638.638 0 00.638-.638V.638A.638.638 0 0039.362 0zm-.639 38.723H1.277V1.277h37.446v37.446z" fill="#FAFAFA"/><path d="M18.723 2.553H3.191a.638.638 0 00-.638.638v33.617c0 .353.286.639.638.639h15.532a.638.638 0 00.639-.639V24.065 3.191a.638.638 0 00-.639-.638zm-.638 33.617H3.83V24.853a4.862 4.862 0 003.564-2.333 4.87 4.87 0 004.202 2.374 4.87 4.87 0 004.208-2.384 4.94 4.94 0 002.281 1.993V36.17zm0-13.106a3.638 3.638 0 01-1.657-2.492.638.638 0 00-1.26 0 3.597 3.597 0 01-3.572 3.045 3.597 3.597 0 01-3.572-3.046.638.638 0 00-1.26 0 3.593 3.593 0 01-2.934 2.99V3.83h14.255v19.234z" fill="#FAFAFA"/></svg>