<svg width="46" height="46" fill="none" xmlns="http://www.w3.org/2000/svg"><path d="M45.082 42.714h-1.06V19.49l.558.26a.918.918 0 001.305-.831v-3.686a.918.918 0 00-.53-.832l-3.16-1.475v-5.96a.918.918 0 00-.917-.919h-5.459a.918.918 0 00-.918.918v2.558L17.787 1.537a.918.918 0 00-.837.031L.469 10.825a.918.918 0 00-.469.8v3.687a.918.918 0 001.367.8l.497-.28v26.882H.956a.918.918 0 000 1.835H45.082a.918.918 0 000-1.835zm-8.345-32.366V7.884h3.623v4.187l-3.625-1.691.002-.032zM1.835 12.162L17.437 3.4 44.05 15.82v1.66L17.786 5.223a.916.916 0 00-.837.032L1.835 13.744v-1.582zM3.7 42.714V14.832l-.002-.03 13.739-7.716 24.749 11.549v24.079H3.7z" fill="#FAFAFA"/><path d="M21.107 27.12H6.462a.918.918 0 00-.918.918v11.937c0 .507.411.918.918.918h14.645c.507 0 .918-.411.918-.918V28.037a.918.918 0 00-.918-.917zM7.38 28.955h5.487v10.102H7.38V28.955zm12.81 10.102h-5.488V28.955h5.487v10.102zM39.461 27.12H24.778a.918.918 0 00-.918.918v11.937c0 .507.411.918.918.918h14.683c.507 0 .918-.411.918-.918V28.037a.918.918 0 00-.918-.917zm-13.765 1.835h5.506v10.102h-5.506V28.955zm12.848 10.102h-5.507V28.955h5.507v10.102zM39.85 19.771l-14.617-6.82a.91.91 0 00-.424-.086.92.92 0 00-.949.917v10.611c0 .507.411.918.918.918h14.683c.507 0 .918-.411.918-.918v-3.79a.918.918 0 00-.53-.832zm-14.154-4.58l5.506 2.57v5.714h-5.506v-8.283zm12.848 8.284h-5.507v-4.857l5.507 2.57v2.287zM22.021 11.961l-.004-.04a1 1 0 00-.055-.214.866.866 0 00-.158-.266.894.894 0 00-.29-.225l-.019-.01-3.173-1.48a.917.917 0 00-.935.094l-.05.024-11.324 6.361a.917.917 0 00-.468.82V24.394c0 .507.41.918.917.918h14.645c.507 0 .918-.411.918-.918V12.038l-.001-.021a.939.939 0 00-.003-.056zM7.38 17.542l5.487-3.082v9.015H7.38v-5.933zm7.322 5.933V13.43l3.275-1.839 2.213 1.033v10.852h-5.488z" fill="#FAFAFA"/></svg>